<svg width="220" height="55" viewBox="0 0 220 55" fill="none" xmlns="http://www.w3.org/2000/svg">
<path d="M5.71451 38.615L2.05365 33.2331L0.0318033 11.7056C1.79985 8.64093 7.97196 2.33217 18.516 1.61458C31.6962 0.717603 37.7929 -0.189712 52.9394 0.0345332C68.0859 0.258778 160.924 0.484959 166.253 0.484959C171.582 0.484959 197.98 -0.187592 205.001 3.1759C210.618 5.86669 215.774 11.0244 217.65 13.2669C217.09 13.7154 216.309 15.1056 217.66 17.079C219.012 19.0523 219.731 22.0871 219.921 23.3578C219.175 24.1053 217.684 25.7797 217.686 26.4972C217.688 27.3942 212.64 27.6185 215.168 28.7397C217.19 29.6367 217.702 32.2529 217.705 33.4488C215.744 34.5701 210.927 36.8574 207.337 37.0368C203.747 37.2162 200.608 38.0085 199.487 38.3822L199.492 40.1763C201.176 40.4753 204.207 41.1629 202.861 41.5216C201.18 41.9701 199.494 40.8489 198.093 41.5216C196.693 42.1944 194.733 43.5399 196.417 43.9884C196.935 44.4016 197.442 44.6077 197.895 44.6879C198.451 44.5805 199.053 44.4922 199.504 44.4368C199.216 44.621 198.623 44.8166 197.895 44.6879C196.951 44.8703 196.138 45.108 196.421 45.3338C196.87 45.6926 198.667 46.2308 199.509 46.455L200.915 47.8005H196.427C193.959 47.8005 194.468 49.146 195.03 49.8187C194.376 49.9682 192.675 50.1775 191.104 49.8187C189.139 49.3702 189.982 50.043 186.617 50.2672C183.925 50.4466 169.287 50.342 164.706 50.2672C165.079 49.9682 165.32 49.3702 163.301 49.3702C160.777 49.3702 160.496 49.3702 157.412 49.8187C154.328 50.2672 55.8782 49.3683 46.3419 49.3683C38.7129 49.3683 48.4078 48.2574 47.0054 48.2574C42.6133 49.0049 27.3997 50.455 20.8921 50.2756C12.7576 50.0513 5.73949 47.8089 5.73888 47.5847C5.73839 47.4053 4.23913 46.1644 3.48956 45.5664C4.23852 45.9402 5.73583 46.4634 5.73339 45.5664C5.73096 44.6695 4.22796 42.0533 3.47676 40.8573L5.71451 38.615Z" fill="#FDA3C4"/>
<path d="M11.0784 51.3968C10.1808 51.3968 10.1459 52.2938 10.2406 52.7423L8.41806 52.9665C7.5319 53.714 5.92776 55.1641 6.60042 54.9847C7.27309 54.8053 8.56195 54.312 9.1223 54.0878C9.49546 53.7888 12.0369 53.1908 19.2171 53.1908C28.1925 53.1908 27.3498 52.7423 28.1913 52.7423C29.0327 52.7423 12.2003 51.3968 11.0784 51.3968Z" fill="#FDA3C4"/>
</svg>
