<svg width="222" height="57" viewBox="0 0 222 57" fill="none" xmlns="http://www.w3.org/2000/svg">
<path d="M6.71469 39.615L3.05371 34.2331L1.0318 12.7056C2.79991 9.64093 8.97222 3.33217 19.5166 2.61458C32.6972 1.7176 38.7941 0.810288 53.9411 1.03453C69.0881 1.25878 161.929 1.48496 167.259 1.48496C172.588 1.48496 198.986 0.812408 206.008 4.1759C211.625 6.86669 216.781 12.0244 218.657 14.2669C218.097 14.7154 217.316 16.1056 218.667 18.079C220.019 20.0523 220.738 23.0871 220.928 24.3578C220.182 25.1053 218.691 26.7797 218.693 27.4972C218.695 28.3942 213.647 28.6185 216.175 29.7397C218.197 30.6367 218.709 33.2529 218.712 34.4488C216.751 35.5701 211.933 37.8574 208.344 38.0368C204.754 38.2162 201.614 39.0085 200.493 39.3822L200.498 41.1763C202.182 41.4753 205.213 42.1629 203.868 42.5216C202.186 42.9701 200.5 41.8489 199.1 42.5216C197.699 43.1944 195.739 44.5399 197.423 44.9884C197.941 45.4016 198.448 45.6077 198.902 45.6879C199.458 45.5805 200.06 45.4922 200.51 45.4368C200.222 45.621 199.63 45.8166 198.902 45.6879C197.957 45.8703 197.144 46.108 197.427 46.3338C197.877 46.6926 199.673 47.2308 200.515 47.455L201.922 48.8005H197.434C194.965 48.8005 195.474 50.146 196.037 50.8187C195.383 50.9682 193.682 51.1775 192.11 50.8187C190.145 50.3702 190.989 51.043 187.623 51.2672C184.931 51.4466 170.293 51.342 165.711 51.2672C166.084 50.9682 166.326 50.3702 164.306 50.3702C161.782 50.3702 161.501 50.3702 158.417 50.8187C155.333 51.2672 56.88 50.3683 47.3434 50.3683C39.7141 50.3683 49.4094 49.2574 48.0069 49.2574C43.6146 50.0049 28.4006 51.455 21.8928 51.2756C13.758 51.0513 6.73967 48.8089 6.73906 48.5847C6.73857 48.4053 5.23926 47.1644 4.48967 46.5664C5.23865 46.9402 6.73601 47.4634 6.73357 46.5664C6.73114 45.6695 5.22809 43.0533 4.47687 41.8573L6.71469 39.615Z" fill="white"/>
<path d="M12.0787 52.3968C11.1811 52.3968 11.1462 53.2938 11.2409 53.7423L9.41832 53.9665C8.53214 54.714 6.92794 56.1641 7.60063 55.9847C8.27332 55.8053 9.56222 55.312 10.1226 55.0878C10.4958 54.7888 13.0372 54.1908 20.2177 54.1908C29.1934 54.1908 28.3507 53.7423 29.1922 53.7423C30.0336 53.7423 13.2007 52.3968 12.0787 52.3968Z" fill="white"/>
<path d="M7.59576 54.1908L9.41832 53.9665M9.41832 53.9665L11.2409 53.7423C11.1462 53.2938 11.1811 52.3968 12.0787 52.3968C13.2007 52.3968 30.0336 53.7423 29.1922 53.7423C28.3507 53.7423 29.1934 54.1908 20.2177 54.1908C13.0372 54.1908 10.4958 54.7888 10.1226 55.0878C9.56222 55.312 8.27332 55.8053 7.60063 55.9847C6.92794 56.1641 8.53214 54.714 9.41832 53.9665ZM6.71469 39.615L3.05371 34.2331L1.0318 12.7056C2.79991 9.64093 8.97222 3.33217 19.5166 2.61458C32.6972 1.7176 38.7941 0.810288 53.9411 1.03453C69.0881 1.25878 161.929 1.48496 167.259 1.48496C172.588 1.48496 198.986 0.812408 206.008 4.1759C211.625 6.86669 216.781 12.0244 218.657 14.2669C218.097 14.7154 217.316 16.1056 218.667 18.079C220.019 20.0523 220.738 23.0871 220.928 24.3578C220.182 25.1053 218.691 26.7797 218.693 27.4972C218.695 28.3942 213.647 28.6185 216.175 29.7397C218.197 30.6367 218.709 33.2529 218.712 34.4488C216.751 35.5701 211.933 37.8574 208.344 38.0368C204.754 38.2162 201.614 39.0085 200.493 39.3822L200.498 41.1763C202.182 41.4753 205.213 42.1629 203.868 42.5216C202.186 42.9701 200.5 41.8489 199.1 42.5216C197.699 43.1944 195.739 44.5399 197.423 44.9884C198.773 46.0647 200.043 45.7358 200.51 45.4368C199.295 45.5863 196.977 45.975 197.427 46.3338C197.877 46.6926 199.673 47.2308 200.515 47.455L201.922 48.8005C201.454 48.8005 199.902 48.8005 197.434 48.8005C194.965 48.8005 195.474 50.146 196.037 50.8187C195.383 50.9682 193.682 51.1775 192.11 50.8187C190.145 50.3702 190.989 51.043 187.623 51.2672C184.931 51.4466 170.293 51.342 165.711 51.2672C166.084 50.9682 166.326 50.3702 164.306 50.3702C161.782 50.3702 161.501 50.3702 158.417 50.8187C155.333 51.2672 56.88 50.3683 47.3434 50.3683C39.7141 50.3683 49.4094 49.2574 48.0069 49.2574C43.6146 50.0049 28.4006 51.455 21.8928 51.2756C13.758 51.0513 6.73967 48.8089 6.73906 48.5847C6.73857 48.4053 5.23926 47.1644 4.48967 46.5664C5.23865 46.9402 6.73601 47.4634 6.73357 46.5664C6.73114 45.6695 5.22809 43.0533 4.47687 41.8573L6.71469 39.615Z" stroke="#FDA3C4"/>
</svg>
