<svg width="240" height="50" viewBox="0 0 240 50" fill="none" xmlns="http://www.w3.org/2000/svg">
<path d="M4.87491 35.1015L1.75665 30.2089L0.0299424 10.6385C1.53454 7.85243 6.78807 2.11722 15.7654 1.46487C26.987 0.649435 32.1777 -0.175394 45.0738 0.028464C57.9699 0.232322 189.682 0.437941 194.219 0.437941C198.757 0.437941 221.232 -0.173467 227.211 2.88424C231.994 5.33041 236.385 10.0192 237.983 12.0579C237.506 12.4655 236.841 13.7294 237.992 15.5233C239.144 17.3173 239.756 20.0762 239.919 21.2314C239.284 21.9109 238.015 23.4331 238.016 24.0854C238.019 24.9008 233.721 25.1047 235.873 26.124C237.595 26.9394 238.031 29.3178 238.034 30.405C236.365 31.4243 232.264 33.5037 229.208 33.6667C226.151 33.8298 223.479 34.5501 222.524 34.8899L222.529 36.5209C223.963 36.7927 226.544 37.4177 225.398 37.7439C223.966 38.1516 222.531 37.1323 221.338 37.7439C220.146 38.3555 218.478 39.5786 219.912 39.9864C220.353 40.3621 220.784 40.5494 221.171 40.6223C221.644 40.5247 222.157 40.4444 222.54 40.3941C222.295 40.5615 221.791 40.7393 221.171 40.6223C220.367 40.7882 219.674 41.0042 219.915 41.2095C220.298 41.5357 221.828 42.0249 222.545 42.2288L223.743 43.452H219.922C217.82 43.452 218.253 44.6751 218.733 45.2867C218.176 45.4226 216.728 45.6129 215.39 45.2867C213.717 44.879 214.435 45.4905 211.57 45.6944C209.278 45.8575 196.814 45.7623 192.914 45.6944C193.231 45.4226 193.437 44.879 191.717 44.879C189.568 44.879 188.307 44.879 185.681 45.2867C183.056 45.6944 47.5881 44.8772 39.4686 44.8772C32.9731 44.8772 41.2273 43.8673 40.0333 43.8673C36.2939 44.5468 23.3411 45.8651 17.8003 45.702C10.8743 45.4982 4.89843 43.4596 4.89785 43.2557C4.89739 43.0926 3.62058 41.9646 2.98224 41.421C3.62001 41.7608 4.89498 42.2364 4.89269 41.421C4.89039 40.6056 3.61007 38.2272 2.97019 37.14L4.87491 35.1015Z" fill="#FDA3C4"/>
<path d="M9.44493 46.7213C8.68075 46.7213 8.6512 47.5367 8.73195 47.9445L7.18028 48.1483C6.42597 48.8278 5.06052 50.1461 5.6332 49.983C6.20588 49.82 7.30313 49.3715 7.78017 49.1676C8.09781 48.8958 10.2615 48.3522 16.3749 48.3522C24.0167 48.3522 23.2992 47.9445 24.0156 47.9445C24.732 47.9445 10.4002 46.7213 9.44493 46.7213Z" fill="#FDA3C4"/>
</svg>
