<svg width="16" height="19" viewBox="0 0 16 19" fill="none" xmlns="http://www.w3.org/2000/svg">
<path d="M8 0.833496C9.98912 0.833496 11.8968 1.62367 13.3033 3.0302C14.7098 4.43672 15.5 6.34437 15.5 8.3335C15.5 11.4385 13.1333 14.6918 8.5 18.1668C8.35575 18.275 8.18031 18.3335 8 18.3335C7.81969 18.3335 7.64425 18.275 7.5 18.1668C2.86667 14.6918 0.5 11.4385 0.5 8.3335C0.5 6.34437 1.29018 4.43672 2.6967 3.0302C4.10322 1.62367 6.01088 0.833496 8 0.833496ZM8 2.50016C6.4529 2.50016 4.96917 3.11474 3.87521 4.20871C2.78125 5.30267 2.16667 6.7864 2.16667 8.3335C2.16667 10.5918 3.93167 13.1968 7.54 16.0885L8 16.4518L8.46 16.0885C12.0683 13.1968 13.8333 10.5918 13.8333 8.3335C13.8333 6.7864 13.2188 5.30267 12.1248 4.20871C11.0308 3.11474 9.5471 2.50016 8 2.50016ZM8 6.66683C8.44203 6.66683 8.86595 6.84242 9.17851 7.15498C9.49107 7.46755 9.66667 7.89147 9.66667 8.3335C9.66667 8.77552 9.49107 9.19945 9.17851 9.51201C8.86595 9.82457 8.44203 10.0002 8 10.0002C7.55797 10.0002 7.13405 9.82457 6.82149 9.51201C6.50893 9.19945 6.33333 8.77552 6.33333 8.3335C6.33333 7.89147 6.50893 7.46755 6.82149 7.15498C7.13405 6.84242 7.55797 6.66683 8 6.66683Z" fill="#FDA3C4"/>
</svg>
