<svg width="61" height="70" viewBox="0 0 61 70" fill="none" xmlns="http://www.w3.org/2000/svg">
<path d="M52.2854 41.6098C43.2854 50.8098 33.1854 57.3098 26.0854 68.3098C25.5854 69.0098 24.7854 69.1098 23.9854 68.8098C23.4854 69.3098 22.5855 69.4098 21.8855 68.7098C13.6855 59.4098 8.78542 48.6098 5.28542 37.1098C2.48542 27.9098 -3.31456 13.6098 2.48544 4.90977C6.28543 -0.890227 13.9854 -1.19021 20.0854 2.10979C26.8854 5.80978 29.4854 12.6097 30.7854 19.5097C33.4854 14.5097 37.4854 10.2098 43.7854 9.3098C51.0854 8.3098 57.4854 13.2098 59.5854 19.9098C62.0854 28.1098 57.6854 36.0098 52.2854 41.6098ZM54.8855 19.3098C51.7855 13.1098 44.1854 11.8098 38.9854 15.6098C34.8854 18.5098 33.0854 23.2098 31.4854 27.7098C30.8854 29.5098 27.7854 29.0098 27.5854 27.1098C26.6854 19.1098 25.5854 8.4098 16.5854 4.8098C13.2854 3.0098 10.7854 3.9098 8.78542 7.3098C4.68542 8.8098 3.18546 11.5098 4.38546 15.6098C4.58546 19.2098 5.58546 22.8098 6.38546 26.3098C9.68546 40.3098 14.4854 53.7098 22.9854 65.7098C29.2854 55.3098 38.0854 49.0098 46.9854 40.9098C52.7854 35.7098 58.9855 27.5098 54.8855 19.3098Z" fill="#1F1F1F"/>
</svg>
