<svg width="163" height="127" viewBox="0 0 163 127" fill="none" xmlns="http://www.w3.org/2000/svg">
	<path d="M114.342 8.56122C114.958 8.76655 115.429 9.07455 115.756 9.48522C116.092 9.89589 116.26 10.3906 116.26 10.9692C116.26 11.5386 116.106 12.0379 115.798 12.4672C115.49 12.8872 115.047 13.2139 114.468 13.4472C113.899 13.6712 113.227 13.7832 112.452 13.7832C111.276 13.7832 110.352 13.5312 109.68 13.0272C109.008 12.5232 108.672 11.8372 108.672 10.9692C108.672 10.3812 108.831 9.88655 109.148 9.48522C109.475 9.07455 109.946 8.76655 110.562 8.56122C110.058 8.36522 109.675 8.08522 109.414 7.72122C109.153 7.34789 109.022 6.90922 109.022 6.40522C109.022 5.61189 109.33 4.98189 109.946 4.51522C110.571 4.04855 111.407 3.81522 112.452 3.81522C113.143 3.81522 113.745 3.92255 114.258 4.13722C114.781 4.34255 115.187 4.64122 115.476 5.03322C115.765 5.42522 115.91 5.88255 115.91 6.40522C115.91 6.90922 115.775 7.34789 115.504 7.72122C115.233 8.08522 114.846 8.36522 114.342 8.56122ZM110.03 6.43322C110.03 6.97455 110.245 7.40389 110.674 7.72122C111.103 8.03855 111.696 8.19722 112.452 8.19722C113.208 8.19722 113.801 8.03855 114.23 7.72122C114.669 7.40389 114.888 6.97922 114.888 6.44722C114.888 5.89655 114.664 5.46255 114.216 5.14522C113.777 4.82789 113.189 4.66922 112.452 4.66922C111.705 4.66922 111.113 4.82789 110.674 5.14522C110.245 5.46255 110.03 5.89188 110.03 6.43322ZM112.452 12.9292C113.32 12.9292 113.997 12.7519 114.482 12.3972C114.977 12.0426 115.224 11.5619 115.224 10.9552C115.224 10.3486 114.977 9.87255 114.482 9.52722C113.997 9.17255 113.32 8.99522 112.452 8.99522C111.593 8.99522 110.917 9.17255 110.422 9.52722C109.937 9.87255 109.694 10.3486 109.694 10.9552C109.694 11.5712 109.937 12.0566 110.422 12.4112C110.907 12.7566 111.584 12.9292 112.452 12.9292ZM121.058 9.49922C122.084 9.55522 122.864 9.83522 123.396 10.3392C123.928 10.8339 124.194 11.4826 124.194 12.2852C124.194 12.8452 124.058 13.3399 123.788 13.7692C123.526 14.2079 123.13 14.5532 122.598 14.8052C122.066 15.0572 121.417 15.1832 120.652 15.1832C119.942 15.1832 119.27 15.0666 118.636 14.8332C118.01 14.6092 117.506 14.3059 117.124 13.9232L117.614 13.1252C117.931 13.4612 118.356 13.7319 118.888 13.9372C119.429 14.1519 120.012 14.2592 120.638 14.2592C121.44 14.2592 122.061 14.0819 122.5 13.7272C122.938 13.3819 123.158 12.9012 123.158 12.2852C123.158 11.6786 122.938 11.2026 122.5 10.8572C122.061 10.5119 121.398 10.3392 120.512 10.3392H119.812V9.59722L122.528 6.19522H117.53V5.29922H123.816V6.01322L121.058 9.49922ZM132.988 13.7692C132.26 13.7692 131.607 13.6106 131.028 13.2932C130.459 12.9759 130.011 12.5326 129.684 11.9632C129.357 11.3846 129.194 10.7359 129.194 10.0172C129.194 9.29855 129.357 8.65455 129.684 8.08522C130.011 7.51589 130.459 7.07255 131.028 6.75522C131.607 6.43789 132.26 6.27922 132.988 6.27922C133.623 6.27922 134.187 6.40522 134.682 6.65722C135.186 6.89989 135.583 7.25922 135.872 7.73522L135.13 8.23922C134.887 7.87522 134.579 7.60455 134.206 7.42722C133.833 7.24055 133.427 7.14722 132.988 7.14722C132.456 7.14722 131.975 7.26855 131.546 7.51122C131.126 7.74455 130.795 8.08055 130.552 8.51922C130.319 8.95789 130.202 9.45722 130.202 10.0172C130.202 10.5866 130.319 11.0906 130.552 11.5292C130.795 11.9586 131.126 12.2946 131.546 12.5372C131.975 12.7706 132.456 12.8872 132.988 12.8872C133.427 12.8872 133.833 12.7986 134.206 12.6212C134.579 12.4439 134.887 12.1732 135.13 11.8092L135.872 12.3132C135.583 12.7892 135.186 13.1532 134.682 13.4052C134.178 13.6479 133.613 13.7692 132.988 13.7692ZM146.029 6.33522V13.6992H145.119V7.87522L142.137 12.8032H141.689L138.707 7.86122V13.6992H137.797V6.33522H138.805L141.927 11.6412L145.105 6.33522H146.029Z" fill="#1F1F1F" />
	<path d="M110.544 25.5986C110.139 25.5986 109.773 25.5079 109.448 25.3266C109.123 25.1399 108.867 24.8839 108.68 24.5586C108.493 24.2333 108.4 23.8653 108.4 23.4546C108.4 23.0439 108.493 22.6759 108.68 22.3506C108.867 22.0253 109.123 21.7719 109.448 21.5906C109.773 21.4093 110.139 21.3186 110.544 21.3186C110.949 21.3186 111.315 21.4093 111.64 21.5906C111.965 21.7719 112.219 22.0253 112.4 22.3506C112.587 22.6759 112.68 23.0439 112.68 23.4546C112.68 23.8653 112.587 24.2333 112.4 24.5586C112.219 24.8839 111.965 25.1399 111.64 25.3266C111.315 25.5079 110.949 25.5986 110.544 25.5986ZM110.544 25.0946C110.843 25.0946 111.109 25.0279 111.344 24.8946C111.584 24.7559 111.771 24.5613 111.904 24.3106C112.037 24.0599 112.104 23.7746 112.104 23.4546C112.104 23.1346 112.037 22.8493 111.904 22.5986C111.771 22.3479 111.584 22.1559 111.344 22.0226C111.109 21.8839 110.843 21.8146 110.544 21.8146C110.245 21.8146 109.976 21.8839 109.736 22.0226C109.501 22.1559 109.315 22.3479 109.176 22.5986C109.043 22.8493 108.976 23.1346 108.976 23.4546C108.976 23.7746 109.043 24.0599 109.176 24.3106C109.315 24.5613 109.501 24.7559 109.736 24.8946C109.976 25.0279 110.245 25.0946 110.544 25.0946ZM115.934 21.4546C116.323 21.4546 116.67 21.5426 116.974 21.7186C117.283 21.8893 117.523 22.1319 117.694 22.4466C117.865 22.7559 117.95 23.1106 117.95 23.5106C117.95 23.9213 117.859 24.2866 117.678 24.6066C117.502 24.9213 117.254 25.1666 116.934 25.3426C116.614 25.5186 116.246 25.6066 115.83 25.6066C115.131 25.6066 114.59 25.3613 114.206 24.8706C113.822 24.3799 113.63 23.7026 113.63 22.8386C113.63 21.9373 113.801 21.2466 114.142 20.7666C114.489 20.2866 115.027 19.9613 115.758 19.7906L117.646 19.3586L117.742 19.8786L115.966 20.2866C115.363 20.4199 114.921 20.6573 114.638 20.9986C114.355 21.3346 114.201 21.8333 114.174 22.4946C114.345 22.1693 114.582 21.9159 114.886 21.7346C115.19 21.5479 115.539 21.4546 115.934 21.4546ZM115.846 25.1346C116.139 25.1346 116.401 25.0679 116.63 24.9346C116.865 24.7959 117.046 24.6039 117.174 24.3586C117.307 24.1133 117.374 23.8359 117.374 23.5266C117.374 23.2173 117.31 22.9453 117.182 22.7106C117.054 22.4759 116.873 22.2946 116.638 22.1666C116.409 22.0333 116.145 21.9666 115.846 21.9666C115.547 21.9666 115.281 22.0333 115.046 22.1666C114.817 22.2946 114.635 22.4759 114.502 22.7106C114.374 22.9453 114.31 23.2173 114.31 23.5266C114.31 23.8359 114.374 24.1133 114.502 24.3586C114.635 24.6039 114.819 24.7959 115.054 24.9346C115.289 25.0679 115.553 25.1346 115.846 25.1346ZM121.307 22.8226C121.824 22.8226 122.219 22.9399 122.491 23.1746C122.763 23.4093 122.899 23.7399 122.899 24.1666C122.899 24.6199 122.752 24.9666 122.459 25.2066C122.166 25.4413 121.744 25.5586 121.195 25.5586H119.531V21.8546H118.219V21.3506H120.099V22.8226H121.307ZM121.187 25.1186C121.56 25.1186 121.843 25.0386 122.035 24.8786C122.227 24.7186 122.323 24.4813 122.323 24.1666C122.323 23.5586 121.944 23.2546 121.187 23.2546H120.099V25.1186H121.187ZM127.66 23.6306H124.14C124.172 24.0679 124.34 24.4226 124.644 24.6946C124.948 24.9613 125.332 25.0946 125.796 25.0946C126.057 25.0946 126.297 25.0493 126.516 24.9586C126.735 24.8626 126.924 24.7239 127.084 24.5426L127.404 24.9106C127.217 25.1346 126.983 25.3053 126.7 25.4226C126.423 25.5399 126.116 25.5986 125.78 25.5986C125.348 25.5986 124.964 25.5079 124.628 25.3266C124.297 25.1399 124.039 24.8839 123.852 24.5586C123.665 24.2333 123.572 23.8653 123.572 23.4546C123.572 23.0439 123.66 22.6759 123.836 22.3506C124.017 22.0253 124.263 21.7719 124.572 21.5906C124.887 21.4093 125.239 21.3186 125.628 21.3186C126.017 21.3186 126.367 21.4093 126.676 21.5906C126.985 21.7719 127.228 22.0253 127.404 22.3506C127.58 22.6706 127.668 23.0386 127.668 23.4546L127.66 23.6306ZM125.628 21.8066C125.223 21.8066 124.881 21.9373 124.604 22.1986C124.332 22.4546 124.177 22.7906 124.14 23.2066H127.124C127.087 22.7906 126.929 22.4546 126.652 22.1986C126.38 21.9373 126.039 21.8066 125.628 21.8066ZM133.629 21.3506V25.5586H133.109V22.2306L131.405 25.0466H131.149L129.445 22.2226V25.5586H128.925V21.3506H129.501L131.285 24.3826L133.101 21.3506H133.629ZM140.315 21.8546H137.907V25.5586H137.339V21.3506H140.315V21.8546ZM143.304 21.3186C143.699 21.3186 144.056 21.4093 144.376 21.5906C144.696 21.7666 144.947 22.0173 145.128 22.3426C145.309 22.6679 145.4 23.0386 145.4 23.4546C145.4 23.8759 145.309 24.2493 145.128 24.5746C144.947 24.8999 144.696 25.1533 144.376 25.3346C144.061 25.5106 143.704 25.5986 143.304 25.5986C142.963 25.5986 142.653 25.5293 142.376 25.3906C142.104 25.2466 141.88 25.0386 141.704 24.7666V27.1106H141.136V21.3506H141.68V22.1826C141.851 21.9053 142.075 21.6919 142.352 21.5426C142.635 21.3933 142.952 21.3186 143.304 21.3186ZM143.264 25.0946C143.557 25.0946 143.824 25.0279 144.064 24.8946C144.304 24.7559 144.491 24.5613 144.624 24.3106C144.763 24.0599 144.832 23.7746 144.832 23.4546C144.832 23.1346 144.763 22.8519 144.624 22.6066C144.491 22.3559 144.304 22.1613 144.064 22.0226C143.824 21.8839 143.557 21.8146 143.264 21.8146C142.965 21.8146 142.696 21.8839 142.456 22.0226C142.221 22.1613 142.035 22.3559 141.896 22.6066C141.763 22.8519 141.696 23.1346 141.696 23.4546C141.696 23.7746 141.763 24.0599 141.896 24.3106C142.035 24.5613 142.221 24.7559 142.456 24.8946C142.696 25.0279 142.965 25.0946 143.264 25.0946ZM150.079 21.3506L147.975 26.0626C147.805 26.4573 147.607 26.7373 147.383 26.9026C147.159 27.0679 146.89 27.1506 146.575 27.1506C146.373 27.1506 146.183 27.1186 146.007 27.0546C145.831 26.9906 145.679 26.8946 145.551 26.7666L145.815 26.3426C146.029 26.5559 146.285 26.6626 146.583 26.6626C146.775 26.6626 146.938 26.6093 147.071 26.5026C147.21 26.3959 147.338 26.2146 147.455 25.9586L147.639 25.5506L145.759 21.3506H146.351L147.935 24.9266L149.519 21.3506H150.079ZM154.881 25.0626V26.5746H154.345V25.5586H150.577V26.5746H150.041V25.0626H150.281C150.563 25.0466 150.755 24.8386 150.857 24.4386C150.958 24.0386 151.027 23.4786 151.065 22.7586L151.121 21.3506H154.225V25.0626H154.881ZM151.585 22.7906C151.558 23.3879 151.507 23.8813 151.433 24.2706C151.358 24.6546 151.225 24.9186 151.033 25.0626H153.657V21.8546H151.633L151.585 22.7906ZM155.988 21.3506H156.556V24.6946L159.364 21.3506H159.868V25.5586H159.3V22.2146L156.5 25.5586H155.988V21.3506Z" fill="#1F1F1F" />
	<path d="M99.544 71.2275C99.1387 71.2275 98.7733 71.1368 98.448 70.9555C98.1227 70.7688 97.8667 70.5128 97.68 70.1875C97.4933 69.8622 97.4 69.4942 97.4 69.0835C97.4 68.6728 97.4933 68.3048 97.68 67.9795C97.8667 67.6542 98.1227 67.4008 98.448 67.2195C98.7733 67.0382 99.1387 66.9475 99.544 66.9475C99.9493 66.9475 100.315 67.0382 100.64 67.2195C100.965 67.4008 101.219 67.6542 101.4 67.9795C101.587 68.3048 101.68 68.6728 101.68 69.0835C101.68 69.4942 101.587 69.8622 101.4 70.1875C101.219 70.5128 100.965 70.7688 100.64 70.9555C100.315 71.1368 99.9493 71.2275 99.544 71.2275ZM99.544 70.7235C99.8427 70.7235 100.109 70.6568 100.344 70.5235C100.584 70.3848 100.771 70.1902 100.904 69.9395C101.037 69.6888 101.104 69.4035 101.104 69.0835C101.104 68.7635 101.037 68.4782 100.904 68.2275C100.771 67.9768 100.584 67.7848 100.344 67.6515C100.109 67.5128 99.8427 67.4435 99.544 67.4435C99.2453 67.4435 98.976 67.5128 98.736 67.6515C98.5013 67.7848 98.3147 67.9768 98.176 68.2275C98.0427 68.4782 97.976 68.7635 97.976 69.0835C97.976 69.4035 98.0427 69.6888 98.176 69.9395C98.3147 70.1902 98.5013 70.3848 98.736 70.5235C98.976 70.6568 99.2453 70.7235 99.544 70.7235ZM104.934 67.0835C105.323 67.0835 105.67 67.1715 105.974 67.3475C106.283 67.5182 106.523 67.7608 106.694 68.0755C106.865 68.3848 106.95 68.7395 106.95 69.1395C106.95 69.5502 106.859 69.9155 106.678 70.2355C106.502 70.5502 106.254 70.7955 105.934 70.9715C105.614 71.1475 105.246 71.2355 104.83 71.2355C104.131 71.2355 103.59 70.9902 103.206 70.4995C102.822 70.0088 102.63 69.3315 102.63 68.4675C102.63 67.5662 102.801 66.8755 103.142 66.3955C103.489 65.9155 104.027 65.5902 104.758 65.4195L106.646 64.9875L106.742 65.5075L104.966 65.9155C104.363 66.0488 103.921 66.2862 103.638 66.6275C103.355 66.9635 103.201 67.4622 103.174 68.1235C103.345 67.7982 103.582 67.5448 103.886 67.3635C104.19 67.1768 104.539 67.0835 104.934 67.0835ZM104.846 70.7635C105.139 70.7635 105.401 70.6968 105.63 70.5635C105.865 70.4248 106.046 70.2328 106.174 69.9875C106.307 69.7422 106.374 69.4648 106.374 69.1555C106.374 68.8462 106.31 68.5742 106.182 68.3395C106.054 68.1048 105.873 67.9235 105.638 67.7955C105.409 67.6622 105.145 67.5955 104.846 67.5955C104.547 67.5955 104.281 67.6622 104.046 67.7955C103.817 67.9235 103.635 68.1048 103.502 68.3395C103.374 68.5742 103.31 68.8462 103.31 69.1555C103.31 69.4648 103.374 69.7422 103.502 69.9875C103.635 70.2328 103.819 70.4248 104.054 70.5635C104.289 70.6968 104.553 70.7635 104.846 70.7635ZM110.307 68.4515C110.824 68.4515 111.219 68.5688 111.491 68.8035C111.763 69.0382 111.899 69.3688 111.899 69.7955C111.899 70.2488 111.752 70.5955 111.459 70.8355C111.166 71.0702 110.744 71.1875 110.195 71.1875H108.531V67.4835H107.219V66.9795H109.099V68.4515H110.307ZM110.187 70.7475C110.56 70.7475 110.843 70.6675 111.035 70.5075C111.227 70.3475 111.323 70.1102 111.323 69.7955C111.323 69.1875 110.944 68.8835 110.187 68.8835H109.099V70.7475H110.187ZM116.66 69.2595H113.14C113.172 69.6968 113.34 70.0515 113.644 70.3235C113.948 70.5902 114.332 70.7235 114.796 70.7235C115.057 70.7235 115.297 70.6782 115.516 70.5875C115.735 70.4915 115.924 70.3528 116.084 70.1715L116.404 70.5395C116.217 70.7635 115.983 70.9342 115.7 71.0515C115.423 71.1688 115.116 71.2275 114.78 71.2275C114.348 71.2275 113.964 71.1368 113.628 70.9555C113.297 70.7688 113.039 70.5128 112.852 70.1875C112.665 69.8622 112.572 69.4942 112.572 69.0835C112.572 68.6728 112.66 68.3048 112.836 67.9795C113.017 67.6542 113.263 67.4008 113.572 67.2195C113.887 67.0382 114.239 66.9475 114.628 66.9475C115.017 66.9475 115.367 67.0382 115.676 67.2195C115.985 67.4008 116.228 67.6542 116.404 67.9795C116.58 68.2995 116.668 68.6675 116.668 69.0835L116.66 69.2595ZM114.628 67.4355C114.223 67.4355 113.881 67.5662 113.604 67.8275C113.332 68.0835 113.177 68.4195 113.14 68.8355H116.124C116.087 68.4195 115.929 68.0835 115.652 67.8275C115.38 67.5662 115.039 67.4355 114.628 67.4355ZM122.629 66.9795V71.1875H122.109V67.8595L120.405 70.6755H120.149L118.445 67.8515V71.1875H117.925V66.9795H118.501L120.285 70.0115L122.101 66.9795H122.629ZM129.299 67.4835H127.707V71.1875H127.139V67.4835H125.547V66.9795H129.299V67.4835ZM131.569 66.9475C132.118 66.9475 132.539 67.0862 132.833 67.3635C133.126 67.6355 133.273 68.0408 133.273 68.5795V71.1875H132.729V70.5315C132.601 70.7502 132.411 70.9208 132.161 71.0435C131.915 71.1662 131.622 71.2275 131.281 71.2275C130.811 71.2275 130.438 71.1155 130.161 70.8915C129.883 70.6675 129.745 70.3715 129.745 70.0035C129.745 69.6462 129.873 69.3582 130.129 69.1395C130.39 68.9208 130.803 68.8115 131.368 68.8115H132.705V68.5555C132.705 68.1928 132.603 67.9182 132.401 67.7315C132.198 67.5395 131.902 67.4435 131.513 67.4435C131.246 67.4435 130.99 67.4888 130.745 67.5795C130.499 67.6648 130.289 67.7848 130.113 67.9395L129.857 67.5155C130.07 67.3342 130.326 67.1955 130.625 67.0995C130.923 66.9982 131.238 66.9475 131.569 66.9475ZM131.368 70.7795C131.689 70.7795 131.963 70.7075 132.193 70.5635C132.422 70.4142 132.593 70.2008 132.705 69.9235V69.2355H131.385C130.665 69.2355 130.305 69.4862 130.305 69.9875C130.305 70.2328 130.398 70.4275 130.585 70.5715C130.771 70.7102 131.033 70.7795 131.368 70.7795ZM138.225 66.9795V71.1875H137.657V67.4835H135.641L135.585 68.5235C135.542 69.3982 135.441 70.0702 135.281 70.5395C135.121 71.0088 134.835 71.2435 134.425 71.2435C134.313 71.2435 134.177 71.2222 134.017 71.1795L134.057 70.6915C134.153 70.7128 134.219 70.7235 134.257 70.7235C134.475 70.7235 134.641 70.6222 134.753 70.4195C134.865 70.2168 134.939 69.9662 134.977 69.6675C135.014 69.3688 135.046 68.9742 135.073 68.4835L135.145 66.9795H138.225ZM139.839 66.9795H140.407V70.3235L143.215 66.9795H143.719V71.1875H143.151V67.8435L140.351 71.1875H139.839V66.9795ZM145.347 66.9795H145.915V70.3235L148.723 66.9795H149.227V71.1875H148.659V67.8435L145.859 71.1875H145.347V66.9795Z" fill="#1F1F1F" />
	<path d="M110.544 110.9C110.139 110.9 109.773 110.809 109.448 110.628C109.123 110.441 108.867 110.185 108.68 109.86C108.493 109.535 108.4 109.167 108.4 108.756C108.4 108.345 108.493 107.977 108.68 107.652C108.867 107.327 109.123 107.073 109.448 106.892C109.773 106.711 110.139 106.62 110.544 106.62C110.949 106.62 111.315 106.711 111.64 106.892C111.965 107.073 112.219 107.327 112.4 107.652C112.587 107.977 112.68 108.345 112.68 108.756C112.68 109.167 112.587 109.535 112.4 109.86C112.219 110.185 111.965 110.441 111.64 110.628C111.315 110.809 110.949 110.9 110.544 110.9ZM110.544 110.396C110.843 110.396 111.109 110.329 111.344 110.196C111.584 110.057 111.771 109.863 111.904 109.612C112.037 109.361 112.104 109.076 112.104 108.756C112.104 108.436 112.037 108.151 111.904 107.9C111.771 107.649 111.584 107.457 111.344 107.324C111.109 107.185 110.843 107.116 110.544 107.116C110.245 107.116 109.976 107.185 109.736 107.324C109.501 107.457 109.315 107.649 109.176 107.9C109.043 108.151 108.976 108.436 108.976 108.756C108.976 109.076 109.043 109.361 109.176 109.612C109.315 109.863 109.501 110.057 109.736 110.196C109.976 110.329 110.245 110.396 110.544 110.396ZM115.934 106.756C116.323 106.756 116.67 106.844 116.974 107.02C117.283 107.191 117.523 107.433 117.694 107.748C117.865 108.057 117.95 108.412 117.95 108.812C117.95 109.223 117.859 109.588 117.678 109.908C117.502 110.223 117.254 110.468 116.934 110.644C116.614 110.82 116.246 110.908 115.83 110.908C115.131 110.908 114.59 110.663 114.206 110.172C113.822 109.681 113.63 109.004 113.63 108.14C113.63 107.239 113.801 106.548 114.142 106.068C114.489 105.588 115.027 105.263 115.758 105.092L117.646 104.66L117.742 105.18L115.966 105.588C115.363 105.721 114.921 105.959 114.638 106.3C114.355 106.636 114.201 107.135 114.174 107.796C114.345 107.471 114.582 107.217 114.886 107.036C115.19 106.849 115.539 106.756 115.934 106.756ZM115.846 110.436C116.139 110.436 116.401 110.369 116.63 110.236C116.865 110.097 117.046 109.905 117.174 109.66C117.307 109.415 117.374 109.137 117.374 108.828C117.374 108.519 117.31 108.247 117.182 108.012C117.054 107.777 116.873 107.596 116.638 107.468C116.409 107.335 116.145 107.268 115.846 107.268C115.547 107.268 115.281 107.335 115.046 107.468C114.817 107.596 114.635 107.777 114.502 108.012C114.374 108.247 114.31 108.519 114.31 108.828C114.31 109.137 114.374 109.415 114.502 109.66C114.635 109.905 114.819 110.097 115.054 110.236C115.289 110.369 115.553 110.436 115.846 110.436ZM121.307 108.124C121.824 108.124 122.219 108.241 122.491 108.476C122.763 108.711 122.899 109.041 122.899 109.468C122.899 109.921 122.752 110.268 122.459 110.508C122.166 110.743 121.744 110.86 121.195 110.86H119.531V107.156H118.219V106.652H120.099V108.124H121.307ZM121.187 110.42C121.56 110.42 121.843 110.34 122.035 110.18C122.227 110.02 122.323 109.783 122.323 109.468C122.323 108.86 121.944 108.556 121.187 108.556H120.099V110.42H121.187ZM127.66 108.932H124.14C124.172 109.369 124.34 109.724 124.644 109.996C124.948 110.263 125.332 110.396 125.796 110.396C126.057 110.396 126.297 110.351 126.516 110.26C126.735 110.164 126.924 110.025 127.084 109.844L127.404 110.212C127.217 110.436 126.983 110.607 126.7 110.724C126.423 110.841 126.116 110.9 125.78 110.9C125.348 110.9 124.964 110.809 124.628 110.628C124.297 110.441 124.039 110.185 123.852 109.86C123.665 109.535 123.572 109.167 123.572 108.756C123.572 108.345 123.66 107.977 123.836 107.652C124.017 107.327 124.263 107.073 124.572 106.892C124.887 106.711 125.239 106.62 125.628 106.62C126.017 106.62 126.367 106.711 126.676 106.892C126.985 107.073 127.228 107.327 127.404 107.652C127.58 107.972 127.668 108.34 127.668 108.756L127.66 108.932ZM125.628 107.108C125.223 107.108 124.881 107.239 124.604 107.5C124.332 107.756 124.177 108.092 124.14 108.508H127.124C127.087 108.092 126.929 107.756 126.652 107.5C126.38 107.239 126.039 107.108 125.628 107.108ZM133.629 106.652V110.86H133.109V107.532L131.405 110.348H131.149L129.445 107.524V110.86H128.925V106.652H129.501L131.285 109.684L133.101 106.652H133.629ZM139.379 106.756C139.769 106.756 140.115 106.844 140.419 107.02C140.729 107.191 140.969 107.433 141.139 107.748C141.31 108.057 141.395 108.412 141.395 108.812C141.395 109.223 141.305 109.588 141.123 109.908C140.947 110.223 140.699 110.468 140.379 110.644C140.059 110.82 139.691 110.908 139.275 110.908C138.577 110.908 138.035 110.663 137.651 110.172C137.267 109.681 137.075 109.004 137.075 108.14C137.075 107.239 137.246 106.548 137.587 106.068C137.934 105.588 138.473 105.263 139.203 105.092L141.091 104.66L141.187 105.18L139.411 105.588C138.809 105.721 138.366 105.959 138.083 106.3C137.801 106.636 137.646 107.135 137.619 107.796C137.79 107.471 138.027 107.217 138.331 107.036C138.635 106.849 138.985 106.756 139.379 106.756ZM139.291 110.436C139.585 110.436 139.846 110.369 140.075 110.236C140.31 110.097 140.491 109.905 140.619 109.66C140.753 109.415 140.819 109.137 140.819 108.828C140.819 108.519 140.755 108.247 140.627 108.012C140.499 107.777 140.318 107.596 140.083 107.468C139.854 107.335 139.59 107.268 139.291 107.268C138.993 107.268 138.726 107.335 138.491 107.468C138.262 107.596 138.081 107.777 137.947 108.012C137.819 108.247 137.755 108.519 137.755 108.828C137.755 109.137 137.819 109.415 137.947 109.66C138.081 109.905 138.265 110.097 138.499 110.236C138.734 110.369 138.998 110.436 139.291 110.436ZM146.293 108.932H142.773C142.805 109.369 142.973 109.724 143.277 109.996C143.581 110.263 143.965 110.396 144.429 110.396C144.69 110.396 144.93 110.351 145.149 110.26C145.367 110.164 145.557 110.025 145.717 109.844L146.037 110.212C145.85 110.436 145.615 110.607 145.333 110.724C145.055 110.841 144.749 110.9 144.413 110.9C143.981 110.9 143.597 110.809 143.261 110.628C142.93 110.441 142.671 110.185 142.485 109.86C142.298 109.535 142.205 109.167 142.205 108.756C142.205 108.345 142.293 107.977 142.469 107.652C142.65 107.327 142.895 107.073 143.205 106.892C143.519 106.711 143.871 106.62 144.261 106.62C144.65 106.62 144.999 106.711 145.309 106.892C145.618 107.073 145.861 107.327 146.037 107.652C146.213 107.972 146.301 108.34 146.301 108.756L146.293 108.932ZM144.261 107.108C143.855 107.108 143.514 107.239 143.237 107.5C142.965 107.756 142.81 108.092 142.773 108.508H145.757C145.719 108.092 145.562 107.756 145.285 107.5C145.013 107.239 144.671 107.108 144.261 107.108ZM151.576 110.364V111.876H151.04V110.86H147.272V111.876H146.736V110.364H146.976C147.259 110.348 147.451 110.14 147.552 109.74C147.653 109.34 147.723 108.78 147.76 108.06L147.816 106.652H150.92V110.364H151.576ZM148.28 108.092C148.253 108.689 148.203 109.183 148.128 109.572C148.053 109.956 147.92 110.22 147.728 110.364H150.352V107.156H148.328L148.28 108.092ZM156.363 108.932H152.843C152.875 109.369 153.043 109.724 153.347 109.996C153.651 110.263 154.035 110.396 154.499 110.396C154.76 110.396 155 110.351 155.219 110.26C155.438 110.164 155.627 110.025 155.787 109.844L156.107 110.212C155.92 110.436 155.686 110.607 155.403 110.724C155.126 110.841 154.819 110.9 154.483 110.9C154.051 110.9 153.667 110.809 153.331 110.628C153 110.441 152.742 110.185 152.555 109.86C152.368 109.535 152.275 109.167 152.275 108.756C152.275 108.345 152.363 107.977 152.539 107.652C152.72 107.327 152.966 107.073 153.275 106.892C153.59 106.711 153.942 106.62 154.331 106.62C154.72 106.62 155.07 106.711 155.379 106.892C155.688 107.073 155.931 107.327 156.107 107.652C156.283 107.972 156.371 108.34 156.371 108.756L156.363 108.932ZM154.331 107.108C153.926 107.108 153.584 107.239 153.307 107.5C153.035 107.756 152.88 108.092 152.843 108.508H155.827C155.79 108.092 155.632 107.756 155.355 107.5C155.083 107.239 154.742 107.108 154.331 107.108ZM159.796 106.62C160.191 106.62 160.548 106.711 160.868 106.892C161.188 107.068 161.439 107.319 161.62 107.644C161.802 107.969 161.892 108.34 161.892 108.756C161.892 109.177 161.802 109.551 161.62 109.876C161.439 110.201 161.188 110.455 160.868 110.636C160.554 110.812 160.196 110.9 159.796 110.9C159.455 110.9 159.146 110.831 158.868 110.692C158.596 110.548 158.372 110.34 158.196 110.068V112.412H157.628V106.652H158.172V107.484C158.343 107.207 158.567 106.993 158.844 106.844C159.127 106.695 159.444 106.62 159.796 106.62ZM159.756 110.396C160.05 110.396 160.316 110.329 160.556 110.196C160.796 110.057 160.983 109.863 161.116 109.612C161.255 109.361 161.324 109.076 161.324 108.756C161.324 108.436 161.255 108.153 161.116 107.908C160.983 107.657 160.796 107.463 160.556 107.324C160.316 107.185 160.05 107.116 159.756 107.116C159.458 107.116 159.188 107.185 158.948 107.324C158.714 107.463 158.527 107.657 158.388 107.908C158.255 108.153 158.188 108.436 158.188 108.756C158.188 109.076 158.255 109.361 158.388 109.612C158.527 109.863 158.714 110.057 158.948 110.196C159.188 110.329 159.458 110.396 159.756 110.396Z" fill="#1F1F1F" />
	<path d="M5.2 100.821C5.2 99.57 5.49867 98.59 6.096 97.8806C6.69333 97.1713 7.51467 96.8166 8.56 96.8166C9.60533 96.8166 10.4267 97.1713 11.024 97.8806C11.612 98.59 11.906 99.57 11.906 100.821V103.453H15V104.489H5.2L5.2 100.821ZM10.996 100.849C10.996 99.878 10.786 99.136 10.366 98.6226C9.93667 98.1093 9.33467 97.8526 8.56 97.8526C7.76667 97.8526 7.16 98.1093 6.74 98.6226C6.31067 99.136 6.096 99.878 6.096 100.849L6.096 103.453H10.996V100.849ZM15.07 91.9269C15.07 92.6362 14.9113 93.2756 14.594 93.8449C14.2673 94.4142 13.8193 94.8622 13.25 95.1889C12.6807 95.5156 12.0367 95.6789 11.318 95.6789C10.5993 95.6789 9.95533 95.5156 9.386 95.1889C8.81667 94.8622 8.37333 94.4142 8.056 93.8449C7.73867 93.2756 7.58 92.6362 7.58 91.9269C7.58 91.2176 7.73867 90.5782 8.056 90.0089C8.37333 89.4396 8.81667 88.9962 9.386 88.6789C9.95533 88.3522 10.5993 88.1889 11.318 88.1889C12.0367 88.1889 12.6807 88.3522 13.25 88.6789C13.8193 88.9962 14.2673 89.4396 14.594 90.0089C14.9113 90.5782 15.07 91.2176 15.07 91.9269ZM14.188 91.9269C14.188 91.4042 14.0713 90.9376 13.838 90.5269C13.5953 90.1069 13.2547 89.7802 12.816 89.5469C12.3773 89.3136 11.878 89.1969 11.318 89.1969C10.758 89.1969 10.2587 89.3136 9.82 89.5469C9.38133 89.7802 9.04533 90.1069 8.812 90.5269C8.56933 90.9376 8.448 91.4042 8.448 91.9269C8.448 92.4496 8.56933 92.9209 8.812 93.3409C9.04533 93.7516 9.38133 94.0782 9.82 94.3209C10.2587 94.5542 10.758 94.6709 11.318 94.6709C11.878 94.6709 12.3773 94.5542 12.816 94.3209C13.2547 94.0782 13.5953 93.7516 13.838 93.3409C14.0713 92.9209 14.188 92.4496 14.188 91.9269ZM15.07 82.9845C15.07 83.7125 14.9113 84.3658 14.594 84.9445C14.2767 85.5138 13.8333 85.9618 13.264 86.2885C12.6853 86.6152 12.0367 86.7785 11.318 86.7785C10.5993 86.7785 9.95533 86.6152 9.386 86.2885C8.81667 85.9618 8.37333 85.5138 8.056 84.9445C7.73867 84.3658 7.58 83.7125 7.58 82.9845C7.58 82.3498 7.706 81.7852 7.958 81.2905C8.20067 80.7865 8.56 80.3898 9.036 80.1005L9.54 80.8425C9.176 81.0852 8.90533 81.3932 8.728 81.7665C8.54133 82.1398 8.448 82.5458 8.448 82.9845C8.448 83.5165 8.56933 83.9972 8.812 84.4265C9.04533 84.8465 9.38133 85.1778 9.82 85.4205C10.2587 85.6538 10.758 85.7705 11.318 85.7705C11.8873 85.7705 12.3913 85.6538 12.83 85.4205C13.2593 85.1778 13.5953 84.8465 13.838 84.4265C14.0713 83.9972 14.188 83.5165 14.188 82.9845C14.188 82.5458 14.0993 82.1398 13.922 81.7665C13.7447 81.3932 13.474 81.0852 13.11 80.8425L13.614 80.1005C14.09 80.3898 14.454 80.7865 14.706 81.2905C14.9487 81.7945 15.07 82.3592 15.07 82.9845ZM8.518 73.1326V75.9186H15V76.9126H8.518V79.6986H7.636L7.636 73.1326H8.518ZM6.6 62.3372H15V63.3452H7.496V65.6552H6.6V62.3372ZM6.6 53.0787H7.314L16.4 57.1807V58.2727L7.496 54.2407V59.2807H9.33V60.2747H6.6L6.6 53.0787ZM6.6 48.8978H15V49.9058H7.496V52.2158H6.6V48.8978ZM15.07 39.1251C15.07 39.8531 14.9113 40.5065 14.594 41.0851C14.2767 41.6545 13.8333 42.1025 13.264 42.4291C12.6853 42.7558 12.0367 42.9191 11.318 42.9191C10.5993 42.9191 9.95533 42.7558 9.386 42.4291C8.81667 42.1025 8.37333 41.6545 8.056 41.0851C7.73867 40.5065 7.58 39.8531 7.58 39.1251C7.58 38.4905 7.706 37.9258 7.958 37.4311C8.20067 36.9271 8.56 36.5305 9.036 36.2411L9.54 36.9831C9.176 37.2258 8.90533 37.5338 8.728 37.9071C8.54133 38.2805 8.448 38.6865 8.448 39.1251C8.448 39.6571 8.56933 40.1378 8.812 40.5671C9.04533 40.9871 9.38133 41.3185 9.82 41.5611C10.2587 41.7945 10.758 41.9111 11.318 41.9111C11.8873 41.9111 12.3913 41.7945 12.83 41.5611C13.2593 41.3185 13.5953 40.9871 13.838 40.5671C14.0713 40.1378 14.188 39.6571 14.188 39.1251C14.188 38.6865 14.0993 38.2805 13.922 37.9071C13.7447 37.5338 13.474 37.2258 13.11 36.9831L13.614 36.2411C14.09 36.5305 14.454 36.9271 14.706 37.4311C14.9487 37.9351 15.07 38.4998 15.07 39.1251ZM7.636 26.0845H15V26.9945H9.176L14.104 29.9765V30.4245L9.162 33.4065H15V34.3165H7.636V33.3085L12.942 30.1865L7.636 27.0085V26.0845Z" fill="#1F1F1F" />
	<path d="M101.788 53.458C102.432 53.458 103.001 53.5793 103.496 53.822C104 54.0646 104.392 54.41 104.672 54.858C104.952 55.2966 105.092 55.81 105.092 56.398C105.092 56.9953 104.947 57.5226 104.658 57.98C104.369 58.4373 103.967 58.792 103.454 59.044C102.95 59.2866 102.381 59.408 101.746 59.408C100.449 59.408 99.4547 58.9833 98.764 58.134C98.0733 57.2753 97.728 56.0666 97.728 54.508C97.728 53.416 97.9147 52.492 98.288 51.736C98.6613 50.98 99.184 50.4106 99.856 50.028C100.528 49.636 101.312 49.44 102.208 49.44C103.179 49.44 103.953 49.6173 104.532 49.972L104.126 50.784C103.659 50.476 103.025 50.322 102.222 50.322C101.139 50.322 100.29 50.6673 99.674 51.358C99.058 52.0393 98.75 53.0333 98.75 54.34C98.75 54.5733 98.764 54.8393 98.792 55.138C99.0347 54.606 99.422 54.1953 99.954 53.906C100.486 53.6073 101.097 53.458 101.788 53.458ZM101.704 58.554C102.413 58.554 102.987 58.3626 103.426 57.98C103.874 57.588 104.098 57.07 104.098 56.426C104.098 55.782 103.874 55.2686 103.426 54.886C102.987 54.5033 102.39 54.312 101.634 54.312C101.139 54.312 100.701 54.4053 100.318 54.592C99.9447 54.7786 99.6507 55.0353 99.436 55.362C99.2213 55.6886 99.114 56.0526 99.114 56.454C99.114 56.8273 99.212 57.1726 99.408 57.49C99.6133 57.8073 99.912 58.064 100.304 58.26C100.696 58.456 101.163 58.554 101.704 58.554ZM110.319 53.458C110.963 53.458 111.533 53.5793 112.027 53.822C112.531 54.0646 112.923 54.41 113.203 54.858C113.483 55.2966 113.623 55.81 113.623 56.398C113.623 56.9953 113.479 57.5226 113.189 57.98C112.9 58.4373 112.499 58.792 111.985 59.044C111.481 59.2866 110.912 59.408 110.277 59.408C108.98 59.408 107.986 58.9833 107.295 58.134C106.605 57.2753 106.259 56.0666 106.259 54.508C106.259 53.416 106.446 52.492 106.819 51.736C107.193 50.98 107.715 50.4106 108.387 50.028C109.059 49.636 109.843 49.44 110.739 49.44C111.71 49.44 112.485 49.6173 113.063 49.972L112.657 50.784C112.191 50.476 111.556 50.322 110.753 50.322C109.671 50.322 108.821 50.6673 108.205 51.358C107.589 52.0393 107.281 53.0333 107.281 54.34C107.281 54.5733 107.295 54.8393 107.323 55.138C107.566 54.606 107.953 54.1953 108.485 53.906C109.017 53.6073 109.629 53.458 110.319 53.458ZM110.235 58.554C110.945 58.554 111.519 58.3626 111.957 57.98C112.405 57.588 112.629 57.07 112.629 56.426C112.629 55.782 112.405 55.2686 111.957 54.886C111.519 54.5033 110.921 54.312 110.165 54.312C109.671 54.312 109.232 54.4053 108.849 54.592C108.476 54.7786 108.182 55.0353 107.967 55.362C107.753 55.6886 107.645 56.0526 107.645 56.454C107.645 56.8273 107.743 57.1726 107.939 57.49C108.145 57.8073 108.443 58.064 108.835 58.26C109.227 58.456 109.694 58.554 110.235 58.554ZM122.221 59.394C121.493 59.394 120.839 59.2353 120.261 58.918C119.691 58.6006 119.243 58.1573 118.917 57.588C118.59 57.0093 118.427 56.3606 118.427 55.642C118.427 54.9233 118.59 54.2793 118.917 53.71C119.243 53.1406 119.691 52.6973 120.261 52.38C120.839 52.0626 121.493 51.904 122.221 51.904C122.855 51.904 123.42 52.03 123.915 52.282C124.419 52.5246 124.815 52.884 125.105 53.36L124.363 53.864C124.12 53.5 123.812 53.2293 123.439 53.052C123.065 52.8653 122.659 52.772 122.221 52.772C121.689 52.772 121.208 52.8933 120.779 53.136C120.359 53.3693 120.027 53.7053 119.785 54.144C119.551 54.5826 119.435 55.082 119.435 55.642C119.435 56.2113 119.551 56.7153 119.785 57.154C120.027 57.5833 120.359 57.9193 120.779 58.162C121.208 58.3953 121.689 58.512 122.221 58.512C122.659 58.512 123.065 58.4233 123.439 58.246C123.812 58.0686 124.12 57.798 124.363 57.434L125.105 57.938C124.815 58.414 124.419 58.778 123.915 59.03C123.411 59.2726 122.846 59.394 122.221 59.394ZM135.261 51.96V59.324H134.351V53.5L131.369 58.428H130.921L127.939 53.486V59.324H127.029V51.96H128.037L131.159 57.266L134.337 51.96H135.261Z" fill="#1F1F1F" />
	<path d="M45.8592 50.5128C46.8108 52.674 47.5279 54.9196 46.9757 57.1209C45.0003 64.9952 42.3228 71.2273 42.7505 73.1457L46.9757 73.4783M45.8592 50.5128C43.8619 45.9772 40.8315 41.8139 46.3346 39.2152H52.8561M45.8592 50.5128L42.7505 67.5658M42.7505 67.5658C40.5954 68.2304 36.7129 70.2768 38.4235 73.1457C40.5617 76.7318 44.2978 70.337 42.7505 67.5658ZM57.8722 42.4127C58.3642 41.0803 58.9218 39.9648 59.3775 39.2152H52.8561M57.8722 42.4127C56.8252 45.2484 56.0755 49.0668 57.2393 52.4313C59.1202 57.8691 60.1747 57.8637 62.2929 60.1052M57.8722 42.4127C61.5815 43.8338 69 47.0596 69 48.5944C69 49.9366 65.5803 55.2891 63.2269 58.7498M62.2929 60.1052C62.5827 60.4118 62.8924 60.7605 63.2269 61.171C64.7342 63.0208 66.6475 70.9765 66.6475 75.0265L59.3775 74.4544M62.2929 60.1052C64.5286 61.3841 69 63.3879 69 61.171C69 58.3999 67.0762 57.3944 63.2269 58.7498M62.2929 60.1052C62.5734 59.7039 62.8892 59.2463 63.2269 58.7498M59.3775 74.4544L53.6048 118.938M59.3775 74.4544L46.9757 73.4783M53.6048 118.938C50.7539 119.649 45.6506 121.794 48.0455 124.693C51.039 128.317 62.5853 120.856 53.6048 118.938ZM46.9757 73.4783L39.7064 89.7348L42.7505 114.462M42.7505 114.462C40.3817 116.735 36.7131 121.965 40.9893 124.693C46.3346 128.104 50.7124 109.985 42.7505 114.462ZM52.8561 39.2152C42.7505 39.2152 40.5617 6.6014 54.8878 7.66716C66.6475 8.54201 62.9617 39.2152 52.8561 39.2152Z" stroke="#FDA3C4" />
	<path d="M43 43.3499H82L106.5 15.082" stroke="#1F1F1F" />
	<path d="M23.9993 123.687L23.9988 9.62374M23.9993 123.687L26.9985 118.728M23.9993 123.687L21.4993 118.728M23.9988 9.62374L21.4993 15.079M23.9988 9.62374L26.9985 15.079" stroke="#1F1F1F" />
	<path d="M43 70.1285H82L105 91.4535" stroke="#1F1F1F" />
	<path d="M47 56.2426H70H93" stroke="#1F1F1F" />
	<path d="M111.78 89.5238C113.077 89.5238 114.071 89.9531 114.762 90.8118C115.453 91.6611 115.798 92.8651 115.798 94.4238C115.798 95.5158 115.611 96.4398 115.238 97.1958C114.865 97.9518 114.342 98.5211 113.67 98.9038C112.998 99.2958 112.214 99.4918 111.318 99.4918C110.347 99.4918 109.573 99.3145 108.994 98.9598L109.4 98.1478C109.867 98.4558 110.501 98.6098 111.304 98.6098C112.387 98.6098 113.236 98.2691 113.852 97.5878C114.468 96.8971 114.776 95.8985 114.776 94.5918C114.776 94.3491 114.762 94.0831 114.734 93.7938C114.491 94.3258 114.104 94.7411 113.572 95.0398C113.04 95.3291 112.429 95.4738 111.738 95.4738C111.094 95.4738 110.52 95.3525 110.016 95.1098C109.521 94.8671 109.134 94.5265 108.854 94.0878C108.574 93.6398 108.434 93.1218 108.434 92.5338C108.434 91.9365 108.579 91.4091 108.868 90.9518C109.157 90.4945 109.554 90.1445 110.058 89.9018C110.571 89.6498 111.145 89.5238 111.78 89.5238ZM111.892 94.6198C112.387 94.6198 112.821 94.5265 113.194 94.3398C113.577 94.1531 113.875 93.8965 114.09 93.5698C114.305 93.2431 114.412 92.8791 114.412 92.4778C114.412 92.1045 114.309 91.7591 114.104 91.4418C113.908 91.1245 113.614 90.8678 113.222 90.6718C112.83 90.4758 112.363 90.3778 111.822 90.3778C111.113 90.3778 110.534 90.5738 110.086 90.9658C109.647 91.3485 109.428 91.8618 109.428 92.5058C109.428 93.1498 109.647 93.6631 110.086 94.0458C110.534 94.4285 111.136 94.6198 111.892 94.6198ZM120.661 93.8078C121.688 93.8638 122.467 94.1438 122.999 94.6478C123.531 95.1425 123.797 95.7911 123.797 96.5938C123.797 97.1538 123.662 97.6485 123.391 98.0778C123.13 98.5165 122.733 98.8618 122.201 99.1138C121.669 99.3658 121.021 99.4918 120.255 99.4918C119.546 99.4918 118.874 99.3751 118.239 99.1418C117.614 98.9178 117.11 98.6145 116.727 98.2318L117.217 97.4338C117.535 97.7698 117.959 98.0405 118.491 98.2458C119.033 98.4605 119.616 98.5678 120.241 98.5678C121.044 98.5678 121.665 98.3905 122.103 98.0358C122.542 97.6905 122.761 97.2098 122.761 96.5938C122.761 95.9871 122.542 95.5111 122.103 95.1658C121.665 94.8205 121.002 94.6478 120.115 94.6478H119.415V93.9058L122.131 90.5038H117.133V89.6078H123.419V90.3218L120.661 93.8078ZM132.592 98.0778C131.864 98.0778 131.21 97.9191 130.632 97.6018C130.062 97.2845 129.614 96.8411 129.288 96.2718C128.961 95.6931 128.798 95.0445 128.798 94.3258C128.798 93.6071 128.961 92.9631 129.288 92.3938C129.614 91.8245 130.062 91.3811 130.632 91.0638C131.21 90.7465 131.864 90.5878 132.592 90.5878C133.226 90.5878 133.791 90.7138 134.286 90.9658C134.79 91.2085 135.186 91.5678 135.476 92.0438L134.734 92.5478C134.491 92.1838 134.183 91.9131 133.81 91.7358C133.436 91.5491 133.03 91.4558 132.592 91.4558C132.06 91.4558 131.579 91.5771 131.15 91.8198C130.73 92.0531 130.398 92.3891 130.156 92.8278C129.922 93.2665 129.806 93.7658 129.806 94.3258C129.806 94.8951 129.922 95.3991 130.156 95.8378C130.398 96.2671 130.73 96.6031 131.15 96.8458C131.579 97.0791 132.06 97.1958 132.592 97.1958C133.03 97.1958 133.436 97.1071 133.81 96.9298C134.183 96.7525 134.491 96.4818 134.734 96.1178L135.476 96.6218C135.186 97.0978 134.79 97.4618 134.286 97.7138C133.782 97.9565 133.217 98.0778 132.592 98.0778ZM145.632 90.6438V98.0078H144.722V92.1838L141.74 97.1118H141.292L138.31 92.1698V98.0078H137.4V90.6438H138.408L141.53 95.9498L144.708 90.6438H145.632Z" fill="#1F1F1F" />
</svg>
