<svg width="189" height="195" viewBox="0 0 189 195" fill="none" xmlns="http://www.w3.org/2000/svg">
<path d="M147.129 62.6098C138.129 71.8098 128.029 78.3098 120.929 89.3098C120.429 90.0098 119.629 90.1098 118.829 89.8098C118.329 90.3098 117.429 90.4098 116.729 89.7098C108.529 80.4098 103.629 69.6098 100.129 58.1098C97.3292 48.9098 91.5292 34.6098 97.3292 25.9098C101.129 20.1098 108.829 19.8098 114.929 23.1098C121.729 26.8098 124.329 33.6097 125.629 40.5097C128.329 35.5097 132.329 31.2098 138.629 30.3098C145.929 29.3098 152.329 34.2098 154.429 40.9098C156.929 49.1098 152.529 57.0098 147.129 62.6098ZM149.729 40.3098C146.629 34.1098 139.029 32.8098 133.829 36.6098C129.729 39.5098 127.929 44.2098 126.329 48.7098C125.729 50.5098 122.629 50.0098 122.429 48.1098C121.529 40.1098 120.429 29.4098 111.429 25.8098C108.129 24.0098 105.629 24.9098 103.629 28.3098C99.5292 29.8098 98.0292 32.5098 99.2292 36.6098C99.4292 40.2098 100.429 43.8098 101.229 47.3098C104.529 61.3098 109.329 74.7098 117.829 86.7098C124.129 76.3098 132.929 70.0098 141.829 61.9098C147.629 56.7098 153.829 48.5098 149.729 40.3098Z" fill="#1F1F1F"/>
<path d="M0.399551 190.386C1.19955 184.186 2.29955 177.486 6.89955 172.786C10.7996 168.786 16.6996 166.686 22.0996 168.886C28.1996 171.386 30.6996 177.586 33.8996 182.786C35.7996 185.886 39.3995 190.286 43.6995 189.386C46.5995 188.686 47.7995 185.686 48.6995 183.186C50.2995 179.086 51.2995 174.486 54.6995 171.386C58.4995 167.986 63.8995 168.386 67.8995 171.286C73.2995 175.086 74.7995 181.586 79.2995 186.186C82.4995 189.386 86.3995 189.086 89.4995 185.786C91.9995 182.986 92.6996 179.286 94.5996 176.086C97.6996 170.886 103.9 169.686 109.1 172.886C115.2 176.786 115.9 184.586 114.6 190.986C114.1 193.586 109.8 192.986 109.9 190.386C109.9 187.386 110.2 184.186 109.2 181.286C107.9 177.586 103.3 174.586 100.1 177.986C98.2996 179.886 97.7996 182.886 96.5996 185.186C95.3996 187.586 93.5995 189.786 91.4995 191.486C82.3995 198.386 74.6995 189.886 70.2995 182.386C67.8995 178.286 61.6995 170.386 57.3995 176.986C55.0995 180.386 54.5995 184.786 52.6995 188.386C47.9995 197.486 37.8995 196.186 31.7995 189.086C27.8995 184.586 25.9995 175.986 19.7995 173.886C10.1995 170.786 6.99954 183.986 6.19954 190.386C5.49954 193.786 -0.000450134 193.886 0.399551 190.386Z" fill="#1F1F1F"/>
<path d="M184.009 139.543C180.809 135.343 179.509 130.843 173.409 129.643C167.509 128.443 162.609 132.043 159.209 136.343C157.809 138.143 154.809 136.743 155.609 134.543C158.009 127.343 166.009 123.143 173.609 124.143C180.109 125.043 188.809 131.043 188.109 138.243C187.909 140.143 185.209 141.143 184.009 139.543Z" fill="#1F1F1F"/>
<path d="M6.19519 38.3851C4.76556 36.6951 6.42972 33.9619 8.60224 34.8164C11.9557 36.0387 15.1012 37.6027 18.5443 35.6014C22.4516 33.4144 23.0354 28.0331 20.6404 24.4674C17.6513 19.9546 13.7558 17.6997 15.1159 11.6202C17.3233 1.84177 29.9507 1.10071 34.3356 9.8587C35.0299 11.2181 32.9797 12.6626 32.0625 11.2846C26.9643 4.08262 15.6694 10.9035 21.4881 18.0759C24.9935 22.3176 27.9233 25.3894 27.0274 31.2833C25.7523 40.1073 12.712 46.3338 6.19519 38.3851Z" fill="#1F1F1F"/>
</svg>
