<svg width="133" height="160" viewBox="0 0 133 160" fill="none" xmlns="http://www.w3.org/2000/svg">
<path d="M52.2854 131.61C43.2854 140.81 33.1854 147.31 26.0854 158.31C25.5854 159.01 24.7854 159.11 23.9854 158.81C23.4854 159.31 22.5855 159.41 21.8855 158.71C13.6855 149.41 8.78542 138.61 5.28542 127.11C2.48542 117.91 -3.31456 103.61 2.48544 94.9098C6.28543 89.1098 13.9854 88.8098 20.0854 92.1098C26.8854 95.8098 29.4854 102.61 30.7854 109.51C33.4854 104.51 37.4854 100.21 43.7854 99.3098C51.0854 98.3098 57.4854 103.21 59.5854 109.91C62.0854 118.11 57.6854 126.01 52.2854 131.61ZM54.8855 109.31C51.7855 103.11 44.1854 101.81 38.9854 105.61C34.8854 108.51 33.0854 113.21 31.4854 117.71C30.8854 119.51 27.7854 119.01 27.5854 117.11C26.6854 109.11 25.5854 98.4098 16.5854 94.8098C13.2854 93.0098 10.7854 93.9098 8.78542 97.3098C4.68542 98.8098 3.18546 101.51 4.38546 105.61C4.58546 109.21 5.58546 112.81 6.38546 116.31C9.68546 130.31 14.4854 143.71 22.9854 155.71C29.2854 145.31 38.0854 139.01 46.9854 130.91C52.7854 125.71 58.9855 117.51 54.8855 109.31Z" fill="#1F1F1F"/>
<path d="M73.5957 16.3766C76.6706 12.0841 77.8376 7.54785 83.8996 6.16875C89.7617 4.79553 94.7656 8.24963 98.2907 12.4476C99.7431 14.2056 102.701 12.7179 101.836 10.5424C99.2252 3.41622 91.105 -0.546343 83.5377 0.67702C77.067 1.76804 68.5475 8.0216 69.4592 15.1979C69.7151 17.0911 72.4433 18.0112 73.5957 16.3766Z" fill="#1F1F1F"/>
<path d="M103.487 81.0732C110.622 80.7502 117.726 79.8625 124.798 78.4098C126.411 78.1084 126.992 75.8101 126.149 74.6527C122.225 68.9914 119.607 62.6205 117.264 56.0929C116.59 54.1472 113.738 55.0837 114.204 57.1117C115.594 63.0545 117.883 68.5937 120.454 74.1172C114.77 75.0683 108.996 75.6702 103.274 75.9152C99.9513 76.0278 100.165 81.1857 103.487 81.0732Z" fill="#1F1F1F"/>
<path d="M92.3556 70.5675C95.1832 71.757 97.6192 70.9852 100.643 70.6058C104.233 70.1953 107.747 69.7181 111.336 69.3075C113.164 69.065 114.259 67.0925 113.252 65.5193C109.743 59.6933 106.984 53.3303 103.543 47.4299C102.61 45.9234 99.9146 47.1344 100.647 48.8644C102.787 54.2701 105.55 59.429 107.757 64.7602C105.364 65.0339 102.83 65.3154 100.437 65.5891C97.4799 65.894 94.6401 65.7674 92.2587 67.5277C91.168 68.2961 91.0536 70.0728 92.3556 70.5675Z" fill="#1F1F1F"/>
</svg>
